<svg width="26" height="26" viewBox="0 0 26 26" fill="none" xmlns="http://www.w3.org/2000/svg">
<path fill-rule="evenodd" clip-rule="evenodd" d="M5 0C2.23858 0 0 2.23858 0 5V21C0 23.7614 2.23858 26 5 26H21C23.7614 26 26 23.7614 26 21V5C26 2.23858 23.7614 0 21 0H5ZM20 10L18.204 11.796C16.5314 10.8448 15.1452 9.46926 14.1813 7.81866L16 6C16.5452 5.45475 16.8179 5.18213 17.112 5.03639C17.6715 4.75911 18.3285 4.75911 18.888 5.03639C19.1821 5.18213 19.4548 5.45475 20 6C20.5452 6.54525 20.8179 6.81788 20.9636 7.11197C21.2409 7.67152 21.2409 8.32848 20.9636 8.88803C20.8179 9.18213 20.5452 9.45475 20 10ZM5.85638 16.1436L12.7269 9.27311C13.7524 10.8763 15.1241 12.2386 16.7458 13.2542L9.85638 20.1436C9.43132 20.5687 9.21879 20.7812 8.95769 20.9209C8.6966 21.0607 8.40187 21.1196 7.81242 21.2375L4.73544 21.8529C4.40282 21.9194 4.23652 21.9527 4.14191 21.8581C4.0473 21.7635 4.08056 21.5972 4.14709 21.2646L4.76248 18.1876C4.88037 17.5981 4.93932 17.3034 5.07905 17.0423C5.21879 16.7812 5.43132 16.5687 5.85638 16.1436Z" fill="#EEEEEE"/>
</svg>
