<svg width="26" height="26" viewBox="0 0 26 26" fill="none" xmlns="http://www.w3.org/2000/svg">
<path fill-rule="evenodd" clip-rule="evenodd" d="M5 0C2.23858 0 0 2.23858 0 5V21C0 23.7614 2.23858 26 5 26H21C23.7614 26 26 23.7614 26 21V5C26 2.23858 23.7614 0 21 0H5ZM7.58579 4.58579C7 5.17157 7 6.11438 7 8V18C7 19.8856 7 20.8284 7.58579 21.4142C8.17157 22 9.11438 22 11 22H15C16.8856 22 17.8284 22 18.4142 21.4142C19 20.8284 19 19.8856 19 18V8C19 6.11438 19 5.17157 18.4142 4.58579C17.8284 4 16.8856 4 15 4H11C9.11438 4 8.17157 4 7.58579 4.58579ZM11 5.5C10.7239 5.5 10.5 5.72386 10.5 6C10.5 6.27614 10.7239 6.5 11 6.5H15C15.2761 6.5 15.5 6.27614 15.5 6C15.5 5.72386 15.2761 5.5 15 5.5H11ZM14 19C14 19.5523 13.5523 20 13 20C12.4477 20 12 19.5523 12 19C12 18.4477 12.4477 18 13 18C13.5523 18 14 18.4477 14 19Z" fill="#EEEEEE"/>
</svg>
