<svg width="26" height="26" viewBox="0 0 26 26" fill="none" xmlns="http://www.w3.org/2000/svg">
<path fill-rule="evenodd" clip-rule="evenodd" d="M5 0C2.23858 0 0 2.23858 0 5V21C0 23.7614 2.23858 26 5 26H21C23.7614 26 26 23.7614 26 21V5C26 2.23858 23.7614 0 21 0H5ZM6.07089 12C6.21244 11.0104 6.56098 10.0875 7.07124 9.27673C7.69259 9.69833 8.3836 10.0494 9.12278 10.3221C10.0336 10.6581 11.0067 10.8713 12 10.957V12H6.07089ZM6.07089 14C6.21244 14.9896 6.56098 15.9125 7.07124 16.7233C7.69259 16.3017 8.3836 15.9506 9.12278 15.6779C10.0336 15.3419 11.0067 15.1287 12 15.043V14H6.07089ZM14 14V15.043C15.0901 15.137 16.1549 15.3846 17.1388 15.7785C17.7801 16.0352 18.3816 16.352 18.9288 16.7233C19.439 15.9125 19.7876 14.9896 19.9291 14H14ZM19.9291 12C19.7876 11.0104 19.439 10.0875 18.9288 9.27673C18.3816 9.648 17.7801 9.96479 17.1388 10.2215C16.1549 10.6154 15.0901 10.863 14 10.957V12H19.9291ZM9.81502 17.5543C10.5011 17.3012 11.2392 17.1315 12 17.052V19.9291C10.6228 19.7321 9.37499 19.1343 8.37843 18.2576C8.80999 17.9848 9.29145 17.7474 9.81502 17.5543ZM14 17.052V19.9291C15.3772 19.7321 16.625 19.1343 17.6216 18.2576C17.249 18.0221 16.8388 17.8127 16.3955 17.6352C15.6525 17.3378 14.841 17.1399 14 17.052ZM14 6.07089V8.94802C14.841 8.86014 15.6525 8.66221 16.3955 8.36476C16.8388 8.1873 17.249 7.97794 17.6216 7.74241C16.625 6.86571 15.3772 6.26788 14 6.07089ZM12 8.94802V6.07089C10.6228 6.26788 9.37499 6.86571 8.37843 7.74241C8.80999 8.01525 9.29145 8.25255 9.81502 8.44571C10.5011 8.69881 11.2392 8.86852 12 8.94802ZM13 4C8.02944 4 4 8.02944 4 13C4 17.9706 8.02944 22 13 22C17.9706 22 22 17.9706 22 13C22 8.02944 17.9706 4 13 4Z" fill="#EEEEEE"/>
</svg>
