<svg width="20" height="18" viewBox="0 0 20 18" fill="none" xmlns="http://www.w3.org/2000/svg">
<path d="M3.08105 7.44588C3.08105 6.65467 3.72245 6.01328 4.51365 6.01328V6.01328C5.0502 6.01328 5.54178 5.71346 5.78737 5.23641L6.41248 4.02217C6.7272 3.41083 7.35715 3.02661 8.04474 3.02661H11.9556C12.6432 3.02661 13.2731 3.41083 13.5879 4.02217L14.213 5.23641C14.4586 5.71346 14.9501 6.01328 15.4867 6.01328V6.01328C16.2779 6.01328 16.9193 6.65467 16.9193 7.44588V11.1333C16.9193 11.9141 16.9193 12.3045 16.847 12.6277C16.5935 13.7618 15.7078 14.6475 14.5737 14.901C14.2505 14.9733 13.8601 14.9733 13.0793 14.9733H6.92105C6.14025 14.9733 5.74985 14.9733 5.42662 14.901C4.2925 14.6475 3.40681 13.7618 3.1533 12.6277C3.08105 12.3045 3.08105 11.9141 3.08105 11.1333V7.44588Z" stroke="#EEEEEE" stroke-width="2"/>
<path d="M12.0751 9.74655C12.0751 10.8164 11.1738 11.7332 9.99997 11.7332C8.82616 11.7332 7.9248 10.8164 7.9248 9.74655C7.9248 8.67667 8.82616 7.75989 9.99997 7.75989C11.1738 7.75989 12.0751 8.67667 12.0751 9.74655Z" stroke="#EEEEEE" stroke-width="2"/>
</svg>
