<svg width="16" height="8" viewBox="0 0 16 8" fill="none" xmlns="http://www.w3.org/2000/svg">
<path d="M9.77093 0.231509C9.70478 0.158151 9.62608 0.099926 9.53938 0.0601915C9.45267 0.0204571 9.35966 0 9.26573 0C9.1718 0 9.07879 0.0204571 8.99208 0.0601915C8.90538 0.099926 8.82668 0.158151 8.76053 0.231509L3.45949 6.07013L1.23235 3.61259C1.16367 3.53961 1.08259 3.48223 0.993752 3.44372C0.904911 3.40521 0.810045 3.38633 0.714569 3.38814C0.619093 3.38996 0.524877 3.41244 0.437301 3.45431C0.349725 3.49618 0.270503 3.55661 0.204159 3.63215C0.137815 3.7077 0.085649 3.79687 0.050638 3.89459C0.015627 3.99231 -0.00154303 4.09666 0.000108809 4.20167C0.00176064 4.30669 0.0222019 4.41032 0.0602651 4.50665C0.0983283 4.60298 0.153268 4.69012 0.221948 4.76309L2.95429 7.76849C3.02044 7.84185 3.09914 7.90007 3.18585 7.93981C3.27256 7.97954 3.36556 8 3.45949 8C3.55343 8 3.64643 7.97954 3.73314 7.93981C3.81985 7.90007 3.89855 7.84185 3.96469 7.76849L9.77093 1.38201C9.84315 1.30872 9.9008 1.21977 9.94022 1.12077C9.97965 1.02176 10 0.914848 10 0.806761C10 0.698675 9.97965 0.59176 9.94022 0.492754C9.9008 0.393749 9.84315 0.304798 9.77093 0.231509Z" fill="#41D37E"/>
<path d="M15.7709 0.231509C15.7048 0.158151 15.6261 0.099926 15.5394 0.0601915C15.4527 0.0204571 15.3597 0 15.2657 0C15.1718 0 15.0788 0.0204571 14.9921 0.0601915C14.9054 0.099926 14.8267 0.158151 14.7605 0.231509L9.45949 6.07013L7.23235 3.61259C7.16367 3.53961 7.08259 3.48223 6.99375 3.44372C6.90491 3.40521 6.81004 3.38633 6.71457 3.38814C6.61909 3.38996 6.52488 3.41244 6.4373 3.45431C6.34972 3.49618 6.2705 3.55661 6.20416 3.63215C6.13782 3.7077 6.08565 3.79687 6.05064 3.89459C6.01563 3.99231 5.99846 4.09666 6.00011 4.20167C6.00176 4.30669 6.0222 4.41032 6.06027 4.50665C6.09833 4.60298 6.15327 4.69012 6.22195 4.76309L8.95429 7.76849C9.02044 7.84185 9.09914 7.90007 9.18585 7.93981C9.27256 7.97954 9.36556 8 9.45949 8C9.55343 8 9.64643 7.97954 9.73314 7.93981C9.81985 7.90007 9.89855 7.84185 9.96469 7.76849L15.7709 1.38201C15.8432 1.30872 15.9008 1.21977 15.9402 1.12077C15.9796 1.02176 16 0.914848 16 0.806761C16 0.698675 15.9796 0.59176 15.9402 0.492754C15.9008 0.393749 15.8432 0.304798 15.7709 0.231509Z" fill="#41D37E"/>
</svg>
