<svg width="26" height="26" viewBox="0 0 26 26" fill="none" xmlns="http://www.w3.org/2000/svg">
<path fill-rule="evenodd" clip-rule="evenodd" d="M5 0C2.23858 0 0 2.23858 0 5V21C0 23.7614 2.23858 26 5 26H21C23.7614 26 26 23.7614 26 21V5C26 2.23858 23.7614 0 21 0H5ZM15.1361 4.36144C15.0928 3.92777 15.0711 3.71093 14.9838 3.54161C14.8728 3.32656 14.6877 3.15902 14.4627 3.07005C14.2855 3 14.0676 3 13.6318 3H12.3681C11.9324 3 11.7145 3 11.5374 3.07001C11.3123 3.15898 11.1271 3.32658 11.0162 3.5417C10.9289 3.71098 10.9072 3.92776 10.8639 4.36131C10.7818 5.18195 10.7408 5.59227 10.5691 5.81742C10.3511 6.10319 9.99661 6.25003 9.64044 6.20207C9.35982 6.16427 9.04061 5.9031 8.4022 5.38076C8.06481 5.10472 7.89612 4.9667 7.71463 4.90872C7.48414 4.8351 7.23478 4.84753 7.01277 4.94373C6.83795 5.01947 6.68385 5.17357 6.37565 5.48177L5.48233 6.37509C5.17403 6.68339 5.01988 6.83754 4.94413 7.01243C4.848 7.23438 4.83557 7.48364 4.90914 7.71405C4.96711 7.89561 5.10516 8.06435 5.38128 8.40182C5.90385 9.04052 6.16514 9.35987 6.20287 9.64066C6.2507 9.99664 6.10395 10.3509 5.81842 10.5688C5.59319 10.7407 5.18265 10.7817 4.36157 10.8638L4.36156 10.8638H4.36155L4.36153 10.8638C3.92776 10.9072 3.71087 10.9289 3.54152 11.0163C3.32654 11.1272 3.15905 11.3123 3.07008 11.5372C3 11.7144 3 11.9324 3 12.3683V13.6318C3 14.0676 3 14.2855 3.07005 14.4627C3.15901 14.6877 3.32656 14.8728 3.54161 14.9838C3.71093 15.0711 3.92776 15.0928 4.36143 15.1361C5.1823 15.2182 5.59273 15.2593 5.81793 15.4311C6.10357 15.649 6.25037 16.0034 6.20247 16.3594C6.16471 16.6402 5.90351 16.9594 5.38111 17.5979C5.10511 17.9352 4.96711 18.1039 4.90914 18.2854C4.8355 18.5159 4.84794 18.7652 4.94414 18.9873C5.01989 19.1621 5.17398 19.3162 5.48217 19.6243L6.37561 20.5178L6.37562 20.5178C6.68381 20.826 6.83791 20.9801 7.01272 21.0558C7.23474 21.152 7.4841 21.1645 7.71459 21.0908C7.89607 21.0329 8.06474 20.8949 8.40208 20.6189C9.04059 20.0964 9.35985 19.8352 9.64057 19.7975C9.99663 19.7496 10.351 19.8964 10.5689 20.182C10.7407 20.4072 10.7818 20.8176 10.8639 21.6385L10.8639 21.6386C10.9072 22.0722 10.9289 22.2891 11.0162 22.4584C11.1272 22.6734 11.3123 22.841 11.5373 22.9299C11.7145 23 11.9324 23 12.3682 23H13.6316C14.0676 23 14.2856 23 14.4628 22.9299C14.6877 22.8409 14.8728 22.6735 14.9837 22.4585C15.0711 22.2891 15.0928 22.0722 15.1362 21.6383C15.2183 20.8173 15.2593 20.4068 15.4311 20.1816C15.649 19.896 16.0034 19.7492 16.3595 19.7971C16.6402 19.8348 16.9594 20.096 17.5979 20.6184L17.5979 20.6184C17.9352 20.8944 18.1039 21.0324 18.2854 21.0904C18.5159 21.164 18.7652 21.1516 18.9873 21.0554C19.1621 20.9796 19.3162 20.8255 19.6243 20.5174L20.5179 19.6238L20.5179 19.6238L20.5179 19.6237C20.826 19.3157 20.98 19.1617 21.0558 18.9869C21.152 18.7648 21.1645 18.5154 21.0908 18.2848C21.0328 18.1034 20.8949 17.9348 20.619 17.5976L20.619 17.5976C20.0968 16.9593 19.8357 16.6402 19.7979 16.3596C19.7499 16.0034 19.8967 15.6489 20.1825 15.4309C20.4077 15.2592 20.818 15.2182 21.6386 15.1361L21.6386 15.1361C22.0722 15.0928 22.289 15.0711 22.4583 14.9838C22.6734 14.8729 22.841 14.6877 22.93 14.4626C23 14.2855 23 14.0676 23 13.6319V12.3682C23 11.9324 23 11.7145 22.9299 11.5373C22.841 11.3123 22.6734 11.1272 22.4584 11.0162C22.2891 10.9289 22.0722 10.9072 21.6385 10.8639C20.8176 10.7818 20.4072 10.7407 20.182 10.5689C19.8964 10.351 19.7496 9.99662 19.7975 9.64056C19.8352 9.35984 20.0964 9.0406 20.6188 8.4021C20.8948 8.06478 21.0328 7.89612 21.0908 7.71464C21.1644 7.48415 21.152 7.23478 21.0558 7.01275C20.98 6.83794 20.8259 6.68385 20.5178 6.37567L19.6243 5.4822C19.3161 5.17402 19.162 5.01994 18.9872 4.94419C18.7652 4.84798 18.5158 4.83555 18.2853 4.90918C18.1038 4.96716 17.9352 5.10515 17.5979 5.38113C16.9594 5.90352 16.6402 6.16472 16.3595 6.20248C16.0034 6.25038 15.649 6.10358 15.4311 5.81793C15.2593 5.59274 15.2182 5.1823 15.1361 4.36144ZM17 13C17 15.2091 15.2091 17 13 17C10.7909 17 9 15.2091 9 13C9 10.7909 10.7909 9 13 9C15.2091 9 17 10.7909 17 13Z" fill="#EEEEEE"/>
</svg>
